Coordinates
version=1
nRows=29
nColumns=24
inDegrees=yes

Units are S.I. units (second, meters, Newtons, ...)
Angles are in degrees.

endheader
time	pelvis_tilt	pelvis_list	pelvis_rotation	pelvis_tx	pelvis_ty	pelvis_tz	hip_flexion_r	hip_adduction_r	hip_rotation_r	knee_angle_r	ankle_angle_r	subtalar_angle_r	mtp_angle_r	hip_flexion_l	hip_adduction_l	hip_rotation_l	knee_angle_l	ankle_angle_l	subtalar_angle_l	mtp_angle_l	lumbar_extension	lumbar_bending	lumbar_rotation
      0.50300000	     -0.18780257	      4.99426078	      3.24235567	     -0.75267386	      0.97872453	      0.28765561	     26.74328313	     -3.28111396	     -1.18684354	    -13.05473139	      8.77804075	     -7.00342078	      0.22783971	    -14.60968116	      9.66482821	      3.08682299	     -7.11567243	     12.36511162	     -3.21831051	      0.15042284	     -0.37747132	     -3.32715687	     -0.60797577
      0.50716667	     -0.20231341	      4.96860742	      3.25558254	     -0.74678179	      0.97810685	      0.28778284	     26.63853614	     -3.19800744	     -1.31728488	    -12.99229063	      8.58018393	     -6.78371534	      0.33537173	    -14.65835449	      9.61022492	      3.05872328	     -7.70169551	     12.41630397	     -3.13647969	      0.04244735	     -0.31732395	     -3.31202365	     -0.70070995
      0.51133333	     -0.26106666	      4.92568771	      3.27352269	     -0.74089020	      0.97746512	      0.28791664	     26.58598402	     -3.09528170	     -1.40635672	    -13.01449631	      8.32911127	     -6.69801158	      0.49490729	    -14.57774467	      9.53355359	      2.92397771	     -8.44405753	     12.55987634	     -2.87494659	     -0.05120135	     -0.21214084	     -3.24986547	     -0.74886319
      0.51550000	     -0.28641298	      4.87242714	      3.28857874	     -0.73494459	      0.97691744	      0.28804096	     26.48461776	     -2.98156963	     -1.48283947	    -13.08102442	      7.99910848	     -6.63764625	      0.55201124	    -14.55058052	      9.45230859	      2.91383785	     -9.15122279	     12.60915813	     -2.82628422	     -0.06836935	     -0.13872985	     -3.17154014	     -0.74645782
      0.51966667	     -0.34942964	      4.82181023	      3.29755932	     -0.72898257	      0.97633453	      0.28822497	     26.42679876	     -2.86349675	     -1.51866575	    -13.21135628	      7.65102282	     -6.56800336	      0.71898907	    -14.39402891	      9.35759182	      2.69260720	    -10.02727131	     12.72275081	     -2.40946301	     -0.07587069	     -0.00730758	     -3.13445564	     -0.79367466
      0.52383333	     -0.40429123	      4.77163554	      3.29346784	     -0.72300169	      0.97579060	      0.28839895	     26.37327253	     -2.74438809	     -1.53637366	    -13.42127033	      7.25189657	     -6.53846751	      0.87771398	    -14.23867121	      9.27545898	      2.56506321	    -10.91631848	     12.76643701	     -2.18994015	     -0.05367524	      0.10770810	     -3.06712596	     -0.79610738
      0.52800000	     -0.44884519	      4.70853469	      3.25838751	     -0.71698234	      0.97527860	      0.28862634	     26.32782465	     -2.60043015	     -1.52615561	    -13.71903833	      6.87295537	     -6.55686883	      1.12154679	    -14.05881915	      9.17636483	      2.34429090	    -11.86395363	     12.80292718	     -1.86885478	      0.02398069	      0.21290167	     -2.98737186	     -0.80389883
      0.53216667	     -0.48268923	      4.64067258	      3.22990403	     -0.71094553	      0.97483254	      0.28885161	     26.25341944	     -2.45305961	     -1.48935540	    -14.02230962	      6.43475418	     -6.58921251	      1.41571731	    -13.86036854	      9.06947284	      2.16141670	    -12.86499651	     12.78203027	     -1.58641177	      0.16780374	      0.31114331	     -2.89914783	     -0.78737793
      0.53633333	     -0.53706072	      4.57930819	      3.19450461	     -0.70489794	      0.97438823	      0.28908441	     26.21203310	     -2.31290338	     -1.42982416	    -14.38089003	      5.99205848	     -6.64116077	      1.71035525	    -13.60882633	      8.97226283	      1.98968116	    -13.92115103	     12.70654822	     -1.34343966	      0.36482406	      0.43608613	     -2.82209005	     -0.75960363
      0.54050000	     -0.57064125	      4.50689733	      3.14724208	     -0.69883716	      0.97400256	      0.28934646	     26.14788655	     -2.15603685	     -1.34583373	    -14.76554348	      5.53517812	     -6.72099229	      2.00549600	    -13.33615484	      8.85767107	      1.78487369	    -15.04996766	     12.59404536	     -1.06661599	      0.62104127	      0.53762935	     -2.73031698	     -0.71787451
      0.54466667	     -0.60944332	      4.43763193	      3.08908826	     -0.69277366	      0.97363243	      0.28962686	     26.10079521	     -2.00042474	     -1.24264310	    -15.19554142	      5.08372244	     -6.81772498	      2.28222191	    -13.02588649	      8.74728814	      1.58605514	    -16.22886471	     12.42082024	     -0.81250755	      0.92244284	      0.64648574	     -2.63863753	     -0.65981396
      0.54883333	     -0.62569734	      4.35340419	      3.02486040	     -0.68665726	      0.97335481	      0.28988400	     26.02758916	     -1.83687519	     -1.17171665	    -15.64076924	      4.57725401	     -6.83060215	      2.37747956	    -12.73502433	      8.62954467	      1.46240971	    -17.40062426	     12.06330063	     -0.72839905	      1.05274688	      0.73312002	     -2.51505865	     -0.61507647
      0.55300000	     -0.66646642	      4.26242555	      2.94676232	     -0.68062950	      0.97300346	      0.29027845	     25.99332062	     -1.63875142	     -0.96883714	    -16.12672166	      4.26630971	     -7.14321513	      2.69756770	    -12.28934780	      8.46197063	      1.08785277	    -18.81603552	     11.91594711	     -0.19035962	      1.57210079	      0.84259508	     -2.41193980	     -0.52005750
      0.55716667	     -0.70380487	      4.16263713	      2.86971247	     -0.67454687	      0.97275378	      0.29062196	     25.93058228	     -1.44073294	     -0.77230177	    -16.56539291	      3.77111754	     -7.46863775	      5.30391098	    -11.86413733	      8.30695336	      0.87938300	    -20.15835768	     11.37839791	     -0.10800106	      6.64667941	      0.96414086	     -2.28647521	     -0.43996097
      0.56133333	     -0.74116158	      4.07487629	      2.79824086	     -0.66849803	      0.97248562	      0.29096032	     25.91105807	     -1.27408961	     -0.67514739	    -17.10395744	      3.40885680	     -7.44185758	      5.31347820	    -11.37541979	      8.14881837	      0.62872170	    -21.62625804	     10.95230772	      0.22264554	      6.70561338	      1.06947118	     -2.18077816	     -0.35920771
      0.56550000	     -0.74475755	      3.94680817	      2.70999067	     -0.66244774	      0.97229602	      0.29135532	     25.84357630	     -1.04866087	     -0.51109783	    -17.63022335	      3.12400134	     -7.62384119	      5.32169064	    -10.87578212	      7.93011507	      0.31374436	    -23.16019183	     10.46952976	      0.60193921	      6.83274176	      1.14651534	     -2.02043370	     -0.26294074
      0.56966667	     -0.74590430	      3.79165124	      2.61909221	     -0.65642887	      0.97212081	      0.29180944	     25.77181129	     -0.78087892	     -0.29266755	    -18.16578905	      2.91782247	     -8.06800618	      5.32725241	    -10.32822025	      7.66485987	     -0.02513210	    -24.77107992	      9.94129239	      1.03855490	      7.23271042	      1.20237409	     -1.82893714	     -0.14036540
      0.57383333	     -0.74825041	      3.65457433	      2.51512315	     -0.65043927	      0.97194411	      0.29224329	     25.73128999	     -0.54452253	     -0.13397266	    -18.75383374	      2.69549367	     -8.21855673	      5.32124243	     -9.74508168	      7.42247000	     -0.34023531	    -26.42484097	      9.32546114	      1.36379633	      7.54206832	      1.26567625	     -1.66289113	     -0.04583630
      0.57800000	     -0.71054919	      3.45774951	      2.44535326	     -0.64445216	      0.97189313	      0.29270512	     25.59358152	     -0.23921691	      0.07211400	    -19.25234815	      2.58156527	     -8.67856215	      5.28401107	     -9.15966597	      7.08219573	     -0.65618699	    -28.13676322	      8.59314192	      1.80080569	      8.26092473	      1.28293019	     -1.42827611	      0.08815909
      0.58216667	     -0.73365794	      3.31104737	      2.32816447	     -0.63853125	      0.97169655	      0.29317173	     25.59241662	      0.01013058	      0.23607544	    -19.87782783	      2.50204810	     -8.73825656	      5.25963602	     -8.47421671	      6.81290922	     -0.97416063	    -29.89487424	      7.80925982	      2.08180045	      8.62774089	      1.36574425	     -1.25444170	      0.16733963
      0.58633333	     -0.69745960	      3.10299424	      2.24849717	     -0.63260327	      0.97167131	      0.29364627	     25.46470978	      0.32832259	      0.43885972	    -20.39661512	      2.50528232	     -9.09178070	      4.64499360	     -7.82268895	      6.44790660	     -1.26944244	    -31.66242752	      6.78046114	      2.28113324	     14.48675071	      1.38220691	     -1.00520082	      0.26004201
      0.59050000	     -0.63752072	      2.89165315	      2.15632272	     -0.62672176	      0.97164213	      0.29413109	     25.33850222	      0.64112610	      0.56942358	    -20.96454989	      2.56588063	     -9.22016050	      4.63374381	     -7.15932599	      6.06441528	     -1.58483210	    -33.49449200	      5.86925472	      2.68379008	     14.54457431	      1.35929898	     -0.75623110	      0.36225898
      0.59466667	     -0.58086550	      2.65672954	      2.08769137	     -0.62087633	      0.97165301	      0.29461592	     25.18618947	      0.98167871	      0.73126783	    -21.47879133	      2.64951052	     -9.57075299	      4.58482124	     -6.45846095	      5.64497488	     -1.85452770	    -35.35485769	      4.84026521	      3.01791940	     14.71988643	      1.33926883	     -0.48738214	      0.47918606
      0.59883333	     -0.54078789	      2.43377697	      1.99416842	     -0.61508839	      0.97161316	      0.29509407	     25.07670341	      1.30834713	      0.86654926	    -22.03839658	      2.83133700	     -9.70285646	      4.55100970	     -5.71670478	      5.24165036	     -2.12440554	    -37.23146073	      3.77212448	      3.27570454	     14.84531163	      1.33272567	     -0.22302712	      0.55851064
      0.60300000	     -0.47160209	      2.17827303	      1.92012559	     -0.60933511	      0.97164458	      0.29557907	     24.90529096	      1.66940968	      0.99934599	    -22.53905149	      3.03107150	     -9.93873094	      4.49668350	     -4.97885997	      4.78518074	     -2.37208689	    -39.12460359	      2.64706875	      3.54793420	     15.00676763	      1.29048988	      0.07727251	      0.65016538
      0.60716667	     -0.40329517	      1.92013770	      1.85099916	     -0.60362880	      0.97168859	      0.29604780	     24.72461405	      2.02996271	      1.11764453	    -23.01858425	      3.26142784	    -10.16699703	      4.42644768	     -4.22229673	      4.32538815	     -2.58258192	    -41.01404705	      1.47563253	      3.75720307	     15.18175517	      1.23900067	      0.37284334	      0.74218402
      0.61133333	     -0.32214634	      1.64399874	      1.80835961	     -0.59796009	      0.97179873	      0.29649609	     24.49624454	      2.40414010	      1.22044138	    -23.43100048	      3.49462515	    -10.47513614	      4.29483338	     -3.45870293	      3.83684048	     -2.75114368	    -42.89807072	      0.24369109	      3.95756617	     15.43856359	      1.17488053	      0.68425995	      0.84485360
      0.61550000	     -0.24836303	      1.39026329	      1.73037409	     -0.59234380	      0.97186471	      0.29694489	     24.29208068	      2.75677050	      1.30750538	    -23.87071713	      3.82035561	    -10.52751582	      4.22547365	     -2.67865548	      3.38130615	     -2.92882772	    -44.76089141	     -0.98633797	      4.02915512	     15.54546195	      1.11273300	      0.97290543	      0.91008407
      0.61966667	     -0.14033275	      1.13438330	      1.69612080	     -0.58675922	      0.97204611	      0.29729692	     24.01275489	      3.08656347	      1.32630926	    -24.23329375	      4.13130831	    -10.56221381	      4.18829720	     -1.92481217	      2.92663694	     -3.03033576	    -46.58605282	     -2.28443779	      4.07880056	     15.57893983	      0.99788751	      1.29029255	      0.97479368
